<?xml version="1.0" standalone="no"?>
<!DOCTYPE svg PUBLIC "-//W3C//DTD SVG 20010904//EN"
 "http://www.w3.org/TR/2001/REC-SVG-20010904/DTD/svg10.dtd">
<svg version="1.0" xmlns="http://www.w3.org/2000/svg"
 width="512.000000pt" height="512.000000pt" viewBox="0 0 512.000000 512.000000"
 preserveAspectRatio="xMidYMid meet">
<metadata>
Created by potrace 1.14, written by Peter Selinger 2001-2017
</metadata>
<g transform="translate(0.000000,512.000000) scale(0.100000,-0.100000)"
fill="#000000" stroke="none">
<path d="M2416 5048 c-34 -100 -40 -523 -11 -780 17 -158 17 -169 1 -212 -23
-61 -48 -91 -111 -131 -70 -44 -105 -53 -260 -64 -140 -10 -230 -35 -304 -84
-95 -63 -224 -181 -259 -238 -21 -32 -43 -58 -51 -59 -22 0 -177 87 -271 153
-47 33 -133 108 -191 166 -111 112 -182 208 -244 331 l-37 74 -25 -29 c-93
-113 -133 -174 -133 -203 0 -108 77 -383 150 -540 106 -224 182 -326 430 -572
112 -111 214 -222 238 -258 80 -122 101 -225 62 -310 -10 -23 -20 -42 -22 -42
-2 0 -3 37 -3 83 -1 64 -6 91 -22 122 -25 48 -93 126 -134 155 l-29 21 0 -684
0 -685 97 -48 c330 -164 667 -466 903 -809 l62 -90 -5 390 c-8 602 -33 746
-191 1078 -100 210 -322 603 -493 870 -43 67 -43 67 -18 67 40 0 428 -59 566
-86 206 -40 227 -48 250 -97 21 -48 24 -122 8 -178 -15 -49 -64 -108 -104
-125 -70 -29 -178 30 -248 136 l-17 24 0 -41 c0 -47 33 -215 56 -288 9 -27 43
-116 76 -197 32 -81 65 -178 73 -215 39 -192 76 -548 100 -983 30 -529 34
-592 40 -598 11 -12 455 -6 466 5 6 6 15 78 19 159 5 82 16 277 25 434 25 447
62 808 102 985 8 39 46 147 83 240 69 172 120 366 120 458 l0 42 -18 -30 c-45
-74 -150 -145 -215 -145 -35 0 -75 30 -108 81 -45 71 -52 158 -18 230 19 43
28 51 63 60 23 5 55 14 71 19 83 25 658 116 689 108 8 -2 -44 -98 -149 -273
-260 -432 -408 -724 -473 -927 -61 -189 -96 -568 -90 -977 l3 -224 57 85 c224
338 585 659 919 820 l89 43 0 682 c0 437 -4 683 -10 683 -20 0 -129 -118 -156
-170 -24 -46 -28 -67 -29 -131 0 -82 -9 -83 -35 -6 -26 82 16 210 106 324 21
27 126 136 234 243 213 212 292 315 384 503 73 151 142 366 161 503 l6 50 -78
104 c-43 57 -82 105 -88 107 -5 1 -25 -25 -44 -60 -128 -236 -334 -433 -604
-577 l-96 -51 -20 39 c-30 59 -66 98 -171 184 -152 126 -242 161 -450 173 -63
4 -131 14 -150 22 -63 25 -131 76 -154 112 -45 72 -49 98 -31 248 25 217 30
503 11 662 -9 74 -19 137 -22 140 -3 3 -77 8 -165 9 -126 3 -160 1 -163 -10z
m679 -1468 c28 -8 81 -26 119 -42 38 -15 78 -28 90 -28 73 -1 293 -71 281 -90
-15 -24 -314 -86 -488 -101 -140 -13 -272 -3 -288 22 -4 6 -4 47 -2 90 l6 79
-92 0 -91 0 0 -46 0 -46 -25 16 c-23 15 -27 15 -50 0 l-25 -16 0 46 0 46 -91
0 -90 0 2 -86 c3 -96 1 -99 -70 -110 -66 -10 -294 2 -391 21 -119 22 -310 76
-310 86 0 21 145 72 240 84 30 3 91 20 135 37 44 17 109 35 144 42 92 17 928
13 996 -4z m-540 -1280 c25 -111 26 -112 46 -21 31 133 38 131 38 -9 1 -645
-26 -1804 -45 -1973 -18 -162 -40 60 -53 553 -16 557 -24 1547 -13 1535 5 -5
17 -44 27 -85z"/>
</g>
</svg>
